<?xml version="1.0" encoding="UTF-8"?>
<svg width="110px" height="110px" viewBox="0 0 110 110" version="1.1" xmlns="http://www.w3.org/2000/svg" xmlns:xlink="http://www.w3.org/1999/xlink">
    <title>CV</title>
    <g id="页面-1" stroke="none" stroke-width="1" fill="none" fill-rule="evenodd">
        <g id="资源服务市场备份-4" transform="translate(-1318.000000, -2104.000000)">
            <g id="CV" transform="translate(1318.000000, 2104.000000)">
                <rect id="矩形备份-26" fill="#026DB8" x="0" y="0" width="110" height="110" rx="4"></rect>
                <g id="cv" transform="translate(19.000000, 18.000000)">
                    <g id="编组-31">
                        <g id="编组" transform="translate(0.000000, 0.500000)" stroke="#8AFCA1" stroke-opacity="0.347437719" stroke-width="2">
                            <g id="矩形备份-41">
                                <path d="M60.9357916,2.20634402 L54.1983094,44.1983094 L12.206344,50.9357916 L18.9438262,8.94382622 L60.9357916,2.20634402 Z" transform="translate(36.571068, 26.571068) rotate(-315.000000) translate(-36.571068, -26.571068) "></path>
                            </g>
                        </g>
                        <g id="编组" transform="translate(2.000000, 17.500000)" stroke="#35FAA3" stroke-width="2">
                            <g id="形状备份-9">
                                <polyline transform="translate(9.321643, 9.618943) rotate(-315.000000) translate(-9.321643, -9.618943) " points="15.8245662 14.2159426 2.81872036 16.0541602 4.79234897 3.18372544"></polyline>
                            </g>
                        </g>
                        <g id="编组" transform="translate(60.000000, 17.500000)" stroke="#35FAA3" stroke-width="2">
                            <g id="形状备份-10" transform="translate(1.500000, 9.500000) scale(-1, 1) translate(-1.500000, -9.500000) translate(-8.000000, 0.000000)">
                                <polyline id="形状备份-9" transform="translate(9.331073, 9.628373) rotate(-315.000000) translate(-9.331073, -9.628373) " points="15.847332 14.2520444 2.81481435 16.0635902 4.78844297 3.19315537"></polyline>
                            </g>
                        </g>
                        <circle id="椭圆形" fill="#35FAA3" cx="3" cy="27" r="3"></circle>
                        <circle id="椭圆形备份-16" fill="#35FAA3" cx="70" cy="27" r="3"></circle>
                    </g>
                    <path d="M36.6965332,7 C41.4242145,7 45.7102764,8.4785609 48.8105147,10.8898573 C51.8081432,13.2213461 53.6965332,16.43204 53.6965332,20 C53.6965332,23.56796 51.8081432,26.7786539 48.8105147,29.1101427 C45.7102764,31.5214391 41.4242145,33 36.6965332,33 C31.9688519,33 27.68279,31.5214391 24.5825518,29.1101427 C21.5849232,26.7786539 19.6965332,23.56796 19.6965332,20 C19.6965332,16.43204 21.5849232,13.2213461 24.5825518,10.8898573 C27.68279,8.4785609 31.9688519,7 36.6965332,7 Z" id="椭圆形" stroke="#319DAF" stroke-width="2"></path>
                    <path d="M36.6965332,21 C41.4242145,21 45.7102764,22.4785609 48.8105147,24.8898573 C51.8081432,27.2213461 53.6965332,30.43204 53.6965332,34 C53.6965332,37.56796 51.8081432,40.7786539 48.8105147,43.1101427 C45.7102764,45.5214391 41.4242145,47 36.6965332,47 C31.9688519,47 27.68279,45.5214391 24.5825518,43.1101427 C21.5849232,40.7786539 19.6965332,37.56796 19.6965332,34 C19.6965332,30.43204 21.5849232,27.2213461 24.5825518,24.8898573 C27.68279,22.4785609 31.9688519,21 36.6965332,21 L36.6965332,21 Z" id="椭圆形备份-18" stroke="#319DAF" stroke-width="2" transform="translate(36.696533, 34.000000) scale(1, -1) translate(-36.696533, -34.000000) "></path>
                    <ellipse id="椭圆形" fill="#35FAA3" cx="37" cy="27" rx="3" ry="2"></ellipse>
                    <path d="M36.5,21 C39.9828228,21 43.1600487,21.8649023 45.644141,23.0141011 C47.1860205,23.7274103 48.4587444,24.548445 49.3605696,25.3411507 C50.070439,25.965127 50.6311035,26.5339757 50.6311035,27 C50.6311035,27.4640146 50.067897,28.0288238 49.3593511,28.6492749 C48.4534113,29.4425776 47.1751626,30.2647605 45.6303292,30.9794364 C43.13975,32.1316362 39.9613281,33 36.5,33 C33.1208404,33 30.0605215,32.1417023 27.6561561,31.0081618 C26.125978,30.2867578 24.8631013,29.455241 23.9618975,28.6614577 C23.2340492,28.0203665 22.6522217,27.4438214 22.6522217,27 C22.6522217,26.5542939 23.2310981,25.9735581 23.9602186,25.3287879 C24.856964,24.5357848 26.1139408,23.7056761 27.640824,22.9858255 C30.0393487,21.8550386 33.0994738,21 36.5,21 Z" id="椭圆形" stroke="#35FAA3" stroke-width="2"></path>
                </g>
                <path d="M48.5701832,91.84 C50.0537729,91.84 51.3254212,91.4889488 52.3851282,90.7868464 C53.5219048,90.0368733 54.2347985,88.9996765 54.5430769,87.6752561 L52.5007326,87.6752561 C52.230989,88.568841 51.749304,89.2390296 51.0556777,89.6858221 C50.4005861,90.1007008 49.5528205,90.3081402 48.5509158,90.3081402 C47.0095238,90.3081402 45.8727473,89.9092183 45.1405861,89.1113747 C44.4469597,88.3614016 44.1001465,87.308248 44.1001465,85.9359569 C44.1001465,84.6115364 44.4469597,83.5583827 45.1598535,82.7924528 C45.9112821,81.9467385 47.0287912,81.5318598 48.512381,81.5318598 C49.5142857,81.5318598 50.3235165,81.7073854 50.9786081,82.0743935 C51.6336996,82.4414016 52.0768498,83.0158491 52.3080586,83.781779 L54.3504029,83.781779 C54.1384615,82.6328841 53.5219048,81.7073854 52.52,81.0371968 C51.4795604,80.3350943 50.1501099,80 48.5509158,80 C46.3544322,80 44.6974359,80.5904043 43.5413919,81.8031267 C42.5009524,82.8722372 42,84.2445283 42,85.9359569 C42,87.6592992 42.481685,89.0315903 43.4835897,90.0528302 C44.6203663,91.2336388 46.3158974,91.84 48.5701832,91.84 Z M63.3675458,91.6166038 L68.3,80.2233962 L66.0264469,80.2233962 L62.1344322,89.6698652 L62.07663,89.6698652 L58.165348,80.2233962 L55.8917949,80.2233962 L60.8242491,91.6166038 L63.3675458,91.6166038 Z" fill="#35FAA3" fill-rule="nonzero"></path>
            </g>
        </g>
    </g>
</svg>