<?xml version="1.0" encoding="UTF-8"?>
<svg width="17px" height="16px" viewBox="0 0 17 16" version="1.1" xmlns="http://www.w3.org/2000/svg" xmlns:xlink="http://www.w3.org/1999/xlink">
    <title>icon/下载</title>
    <g id="页面-1" stroke="none" stroke-width="1" fill="none" fill-rule="evenodd">
        <g id="资源服务市场备份-4" transform="translate(-868.000000, -1286.000000)" fill="#4C7EE9" fill-rule="nonzero">
            <g id="card/深色/机器人备份-2" transform="translate(840.000000, 1080.000000)">
                <g id="icon/下载" transform="translate(28.759773, 206.000000)">
                    <path d="M0.99618768,13.1342238 L15.0038123,13.1342238 L15.0038123,15 L0.99618768,15 L0.99618768,13.1342238 Z M12.2354397,7.76250825 L8.84103038,10.950923 C8.60920158,11.1571853 8.30896158,11.2698807 7.9986697,11.2671038 C7.68848644,11.2709372 7.38839091,11.1569956 7.15891587,10.9482624 L3.76198036,7.76514198 C3.58162298,7.60092197 3.47636081,7.37002307 3.47068546,7.12616905 C3.47068546,6.59869926 3.97848296,6.1709615 4.60434103,6.1709615 L4.63057074,6.1709615 L4.63057074,6.16569406 L6.86901846,6.16569406 L6.86901846,3.82230063 C6.86901846,3.29485772 7.37547223,2.86711995 8.0013303,2.86711995 C8.62589838,2.86711995 9.13366901,3.29354086 9.13366901,3.82230063 L9.13366901,6.16569406 L11.3314284,6.16569406 L11.3314284,6.17356835 L11.3970296,6.1709615 C12.0228876,6.1709615 12.5306852,6.59869926 12.5306852,7.12616905 C12.5260044,7.37042946 12.4194391,7.60161496 12.2367565,7.76382511 L12.2354397,7.76250825 Z M6.1880135,1 L9.8119865,1 L9.8119865,6.59998925 L6.1880135,6.59998925 L6.1880135,1 L6.1880135,1 Z" id="形状"></path>
                </g>
            </g>
        </g>
    </g>
</svg>