<?xml version="1.0" encoding="UTF-8"?>
<svg width="48px" height="48px" viewBox="0 0 48 48" version="1.1" xmlns="http://www.w3.org/2000/svg" xmlns:xlink="http://www.w3.org/1999/xlink">
    <title>编组 13</title>
    <g id="页面-1" stroke="none" stroke-width="1" fill="none" fill-rule="evenodd">
        <g id="资源服务市场备份-4" transform="translate(-542.000000, -628.000000)">
            <g id="编组-13" transform="translate(542.000000, 628.000000)">
                <path d="M48,48 L48,4 C48,1.790861 46.209139,-4.05812251e-16 44,0 L0,0 L0,0 L48,48 Z" id="路径-5" fill="#4C7EE9"></path>
                <path d="M20.9294373,20.8845627 C23.6454373,19.8345627 25.3954373,18.5045627 26.1514373,16.8805627 C26.2634373,16.6285627 26.3754373,16.3765627 26.4734373,16.1105627 L27.2014373,16.1105627 L27.2014373,19.1765627 C27.2014373,20.1565627 27.6354373,20.6465627 28.5034373,20.6465627 L31.2474373,20.6465627 C31.7374373,20.6465627 32.0874373,20.5205627 32.3114373,20.2685627 C32.5634373,19.9745627 32.7314373,19.1485627 32.8294373,17.8045627 L31.8634373,17.4965627 C31.8214373,18.5465627 31.7374373,19.1765627 31.5974373,19.4005627 C31.4854373,19.5685627 31.3174373,19.6665627 31.0654373,19.6665627 L28.8114373,19.6665627 C28.4054373,19.6665627 28.2094373,19.4285627 28.2094373,18.9665627 L28.2094373,16.1105627 L31.4014373,16.1105627 L31.4014373,11.8685627 L27.9714373,11.8685627 C28.5454373,11.3645627 29.1194373,10.7485627 29.7074373,10.0205627 L29.7074373,9.25056275 L24.8774373,9.25056275 C25.1294373,8.91456275 25.3674373,8.56456275 25.5914373,8.20056275 L24.5834373,7.96256275 C23.4494373,9.69856275 22.0074373,11.0845627 20.2434373,12.1485627 L20.8874373,12.9185627 C21.2514373,12.6805627 21.6154373,12.4285627 21.9794373,12.1625627 L21.9794373,16.1105627 L25.3954373,16.1105627 C25.3114373,16.3065627 25.2274373,16.5165627 25.1294373,16.7125627 C24.3454373,18.0565627 22.7214373,19.1905627 20.2854373,20.0865627 L20.9294373,20.8845627 Z M26.6834373,11.8685627 L22.3574373,11.8685627 C23.0014373,11.3505627 23.5894373,10.7905627 24.1354373,10.1745627 L28.3914373,10.1745627 C27.8314373,10.8185627 27.2714373,11.3785627 26.6834373,11.8685627 Z M30.4354373,15.1585627 L26.7534373,15.1585627 C26.9214373,14.4445627 27.0054373,13.6605627 27.0334373,12.8065627 L30.4354373,12.8065627 L30.4354373,15.1585627 Z M25.7034373,15.1585627 L22.9594373,15.1585627 L22.9594373,12.8065627 L26.0254373,12.8065627 C25.9974373,13.6605627 25.8854373,14.4445627 25.7034373,15.1585627 Z M37.2814373,18.6865627 L37.2814373,15.7745627 L44.1414373,15.7745627 L44.1414373,18.6865627 L45.1354373,18.6865627 L45.1354373,14.8785627 L36.5394373,14.8785627 C37.3514373,14.5985627 37.9674373,14.2485627 38.4154373,13.8285627 C38.6674373,13.5625627 38.8914373,13.2545627 39.0734373,12.9045627 L41.5234373,12.9045627 L41.5234373,14.5005627 L42.5034373,14.5005627 L42.5034373,12.9045627 L45.3174373,12.9045627 C45.3034373,13.2685627 45.2614373,13.5065627 45.1774373,13.6325627 C45.0654373,13.7725627 44.7994373,13.8425627 44.3654373,13.8425627 C44.1414373,13.8425627 43.9034373,13.8285627 43.6514373,13.8145627 L43.8474373,14.5285627 C44.0434373,14.5285627 44.2674373,14.5425627 44.4914373,14.5425627 C45.2474373,14.5425627 45.7374373,14.3885627 45.9474373,14.0805627 C46.1574373,13.8145627 46.2694373,13.1705627 46.2694373,12.1345627 L42.5034373,12.1345627 L42.5034373,11.2525627 L45.5974373,11.2525627 L45.5974373,8.73256275 L42.5034373,8.73256275 L42.5034373,8.00456275 L41.5234373,8.00456275 L41.5234373,8.73256275 L39.4794373,8.73256275 L39.4794373,8.00456275 L38.4994373,8.00456275 L38.4994373,8.73256275 L35.3074373,8.73256275 L35.3074373,9.55856275 L38.4994373,9.55856275 L38.4994373,10.4545627 L35.6714373,10.4545627 L35.1814373,12.9045627 L37.9394373,12.9045627 C37.8554373,13.0165627 37.7574373,13.1285627 37.6594373,13.2405627 C37.1134373,13.7445627 36.1334373,14.1505627 34.7054373,14.4585627 L35.2094373,15.2565627 C35.5734373,15.1725627 35.9374373,15.0745627 36.2874373,14.9625627 L36.2874373,18.6865627 L37.2814373,18.6865627 Z M41.5234373,10.4545627 L39.4794373,10.4545627 L39.4794373,9.55856275 L41.5234373,9.55856275 L41.5234373,10.4545627 Z M44.6454373,10.4545627 L42.5034373,10.4545627 L42.5034373,9.55856275 L44.6454373,9.55856275 L44.6454373,10.4545627 Z M38.3454373,12.1345627 L36.2734373,12.1345627 L36.4974373,11.2525627 L38.4994373,11.2525627 C38.4854373,11.5605627 38.4294373,11.8545627 38.3454373,12.1345627 Z M41.5234373,12.1345627 L39.3534373,12.1345627 C39.4094373,11.8545627 39.4514373,11.5605627 39.4794373,11.2525627 L41.5234373,11.2525627 L41.5234373,12.1345627 Z M35.0554373,20.8845627 C37.5754373,20.7025627 39.1854373,20.2685627 39.9134373,19.5825627 C40.5714373,19.0225627 40.9914373,17.9585627 41.1734373,16.3625627 L40.1654373,16.2645627 C40.0534373,17.5385627 39.6894373,18.4485627 39.0594373,18.9945627 C38.3454373,19.5545627 36.8754373,19.8765627 34.6494373,19.9885627 L35.0554373,20.8845627 Z M45.8774373,20.9405627 L46.4234373,20.1005627 C44.9254373,19.4565627 43.2734373,18.9245627 41.4674373,18.4905627 L40.9634373,19.2465627 C42.6434373,19.6525627 44.2814373,20.2125627 45.8774373,20.9405627 Z" id="免费" fill="#FFFFFF" fill-rule="nonzero" transform="translate(33.333437, 14.451563) rotate(-315.000000) translate(-33.333437, -14.451563) "></path>
            </g>
        </g>
    </g>
</svg>