<?xml version="1.0" encoding="utf-8"?>
<!-- Generator: Adobe Illustrator 21.0.0, SVG Export Plug-In . SVG Version: 6.00 Build 0)  -->
<svg version="1.1" xmlns="http://www.w3.org/2000/svg" xmlns:xlink="http://www.w3.org/1999/xlink" x="0px" y="0px"
	 viewBox="0 0 200 200" style="enable-background:new 0 0 200 200;" xml:space="preserve">
<style type="text/css">
	.st0{fill:#FFFFFF;}
	.st1{display:none;fill:#333333;}
	.st2{display:none;}
	.st3{display:inline;fill:#333333;}
</style>
<g id="图层_1">
	<path class="st0" d="M178.2,40.8v124H22.8v-124H178.2z M40.4,58.2v88.9h120.2V58.2H40.4z"/>
	<rect x="68.8" y="162.9" class="st1" width="61.6" height="17.6"/>
	<rect x="53.5" y="79.5" class="st0" width="26.5" height="40.5"/>
	<rect x="120" y="79.5" class="st0" width="26.5" height="40.5"/>
	<path class="st0" d="M179.5,125c-11.3,0-11-12.9-11-28.8s-0.3-28.8,11-28.8S200,80.4,200,96.3S190.8,125,179.5,125z"/>
	<path class="st0" d="M20.5,125c11.3,0,11-12.9,11-28.8s0.3-28.8-11-28.8S0,80.4,0,96.3S9.2,125,20.5,125z"/>
</g>
<g id="图层_2" class="st2">
	<polygon class="st3" points="60.7,105.9 48.2,93.5 86,55.8 111.2,81 136.5,55.8 149,68.2 111.2,105.9 86,80.8 60.7,105.9 	"/>
</g>
</svg>
