<svg xmlns="http://www.w3.org/2000/svg" xmlns:xlink="http://www.w3.org/1999/xlink" viewBox="0 0 186 206.96"><defs><style>.cls-1{fill:none;}.cls-2{fill:#fff;}.cls-3{clip-path:url(#clip-path);}</style><clipPath id="clip-path" transform="translate(-14 -11.86)"><polygon class="cls-1" points="5 199 0 56 109 0 199.66 62 207.66 116 162 141 87 95 67 145 7 217 5 199"/></clipPath></defs><title>RPA_白</title><g id="图层_2" data-name="图层 2"><g id="图层_1-2" data-name="图层 1"><ellipse class="cls-2" cx="90.18" cy="104.48" rx="4.71" ry="6.68"/><ellipse class="cls-2" cx="100.68" cy="110.63" rx="4.33" ry="6.15"/><ellipse class="cls-2" cx="111.18" cy="116.78" rx="3.96" ry="5.61"/><ellipse class="cls-2" cx="121.68" cy="122.92" rx="3.58" ry="5.07"/><ellipse class="cls-2" cx="132.19" cy="129.07" rx="3.2" ry="4.54"/><ellipse class="cls-2" cx="142.69" cy="135.22" rx="2.82" ry="4"/><ellipse class="cls-2" cx="153.19" cy="141.37" rx="2.44" ry="3.47"/><ellipse class="cls-2" cx="163.69" cy="147.51" rx="2.07" ry="2.93"/><ellipse class="cls-2" cx="174.19" cy="153.66" rx="1.69" ry="2.39"/><ellipse class="cls-2" cx="184.69" cy="159.81" rx="1.31" ry="1.86"/><ellipse class="cls-2" cx="90.18" cy="127.13" rx="4.71" ry="6.68"/><ellipse class="cls-2" cx="100.68" cy="133.28" rx="4.33" ry="6.15"/><ellipse class="cls-2" cx="111.18" cy="139.43" rx="3.96" ry="5.61"/><ellipse class="cls-2" cx="121.68" cy="145.57" rx="3.58" ry="5.07"/><ellipse class="cls-2" cx="132.19" cy="151.72" rx="3.2" ry="4.54"/><ellipse class="cls-2" cx="142.69" cy="157.87" rx="2.82" ry="4"/><ellipse class="cls-2" cx="153.19" cy="164.01" rx="2.44" ry="3.47"/><ellipse class="cls-2" cx="163.69" cy="170.16" rx="2.07" ry="2.93"/><ellipse class="cls-2" cx="174.19" cy="176.31" rx="1.69" ry="2.39"/><ellipse class="cls-2" cx="184.69" cy="182.46" rx="1.31" ry="1.86"/><ellipse class="cls-2" cx="90.18" cy="149.78" rx="4.71" ry="6.68"/><ellipse class="cls-2" cx="100.68" cy="155.93" rx="4.33" ry="6.15"/><ellipse class="cls-2" cx="111.18" cy="162.08" rx="3.96" ry="5.61"/><ellipse class="cls-2" cx="121.68" cy="168.22" rx="3.58" ry="5.07"/><ellipse class="cls-2" cx="132.19" cy="174.37" rx="3.2" ry="4.54"/><ellipse class="cls-2" cx="142.69" cy="180.52" rx="2.82" ry="4"/><ellipse class="cls-2" cx="153.19" cy="186.66" rx="2.44" ry="3.47"/><ellipse class="cls-2" cx="163.69" cy="192.81" rx="2.07" ry="2.93"/><ellipse class="cls-2" cx="174.19" cy="198.96" rx="1.69" ry="2.39"/><ellipse class="cls-2" cx="184.69" cy="205.1" rx="1.31" ry="1.86"/><g class="cls-3"><polygon class="cls-2" points="8 192.14 0 192.14 0 48.84 85.89 0 171.64 52.12 171.64 105.79 118.76 131.73 115.24 124.55 163.64 100.8 163.64 56.62 85.75 9.28 8 53.49 8 192.14"/><polygon class="cls-2" points="20.84 181.09 12.84 181.09 12.84 56.01 85.89 14.47 158.81 58.79 158.81 96.98 108.77 121.73 105.23 114.55 150.81 92.02 150.81 63.29 85.75 23.75 20.84 60.66 20.84 181.09"/><polygon class="cls-2" points="33.67 166.02 25.67 166.02 25.67 63.78 85.89 29.54 145.97 66.06 145.97 88.82 99.71 110.75 96.29 103.53 137.97 83.76 137.97 70.56 85.75 38.82 33.67 68.44 33.67 166.02"/><polygon class="cls-2" points="46.5 150.95 38.5 150.95 38.5 71.55 85.89 44.6 133.14 73.33 133.14 80.79 91.74 100.74 88.26 93.54 123.25 76.68 85.75 53.88 46.5 76.2 46.5 150.95"/></g></g></g></svg>