<?xml version="1.0" encoding="UTF-8"?>
<svg width="110px" height="110px" viewBox="0 0 110 110" version="1.1" xmlns="http://www.w3.org/2000/svg" xmlns:xlink="http://www.w3.org/1999/xlink">
    <title>NLP</title>
    <g id="页面-1" stroke="none" stroke-width="1" fill="none" fill-rule="evenodd">
        <g id="资源服务市场备份-4" transform="translate(-1186.000000, -2104.000000)">
            <g id="NLP" transform="translate(1186.000000, 2104.000000)">
                <rect id="矩形备份-27" fill="#026DB8" x="0" y="0" width="110" height="110" rx="4"></rect>
                <g id="nlp" transform="translate(18.000000, 18.000000)">
                    <g id="编组-31">
                        <g id="编组" transform="translate(0.000000, 2.500000)" stroke="#8AFCA1" stroke-opacity="0.347437719" stroke-width="2">
                            <g id="矩形备份-41">
                                <path d="M60.9357916,2.20634402 L54.1983094,44.1983094 L12.206344,50.9357916 L18.9438262,8.94382622 L60.9357916,2.20634402 Z" transform="translate(36.571068, 26.571068) rotate(-315.000000) translate(-36.571068, -26.571068) "></path>
                            </g>
                        </g>
                        <g id="形状备份-11" transform="translate(36.500000, 11.500000) scale(-1, 1) rotate(-270.000000) translate(-36.500000, -11.500000) translate(25.500000, 1.000000)" stroke="#35FAA3" stroke-width="2">
                            <polyline id="形状备份-9" transform="translate(11.108904, 10.647717) rotate(-315.000000) translate(-11.108904, -10.647717) " points="18.4290741 17.9678864 5.79100251 15.856444 3.78873453 3.32754679"></polyline>
                        </g>
                        <g id="编组" transform="translate(25.500000, 45.000000)" stroke="#35FAA3" stroke-width="2">
                            <g id="形状备份-12" transform="translate(11.000000, 1.500000) scale(-1, -1) rotate(-270.000000) translate(-11.000000, -1.500000) translate(0.000000, -9.000000)">
                                <polyline id="形状备份-9" transform="translate(11.108904, 10.647717) rotate(-315.000000) translate(-11.108904, -10.647717) " points="18.4290741 17.9678864 5.79100251 15.856444 3.78873453 3.32754679"></polyline>
                            </g>
                        </g>
                        <g id="编组" transform="translate(2.000000, 19.500000)" stroke="#35FAA3" stroke-width="2">
                            <g id="形状备份-9">
                                <polyline transform="translate(9.321643, 9.618943) rotate(-315.000000) translate(-9.321643, -9.618943) " points="15.8245662 14.2159426 2.81872036 16.0541602 4.79234897 3.18372544"></polyline>
                            </g>
                        </g>
                        <g id="编组" transform="translate(60.000000, 19.500000)" stroke="#35FAA3" stroke-width="2">
                            <g id="形状备份-10" transform="translate(1.500000, 9.500000) scale(-1, 1) translate(-1.500000, -9.500000) translate(-8.000000, 0.000000)">
                                <polyline id="形状备份-9" transform="translate(9.331073, 9.628373) rotate(-315.000000) translate(-9.331073, -9.628373) " points="15.847332 14.2520444 2.81481435 16.0635902 4.78844297 3.19315537"></polyline>
                            </g>
                        </g>
                        <circle id="椭圆形" fill="#35FAA3" cx="3" cy="29" r="3"></circle>
                        <circle id="椭圆形备份-16" fill="#35FAA3" cx="70" cy="29" r="3"></circle>
                    </g>
                    <path d="M20.18,35.28 L20.18,24.54 L20.26,24.54 L27.64,35.28 L29.76,35.28 L29.76,21 L27.58,21 L27.58,31.62 L27.5,31.62 L20.2,21 L18,21 L18,35.28 L20.18,35.28 Z M42.6,35.28 L42.6,33.42 L34.74,33.42 L34.74,21 L32.58,21 L32.58,35.28 L42.6,35.28 Z M46.58,35.28 L46.58,29.72 L50.28,29.72 C53.7,29.72 55.42,28.26 55.42,25.34 C55.42,22.44 53.72,21 50.32,21 L44.4,21 L44.4,35.28 L46.58,35.28 Z M50.14,27.86 L46.58,27.86 L46.58,22.86 L50.14,22.86 C51.2,22.86 51.98,23.06 52.48,23.46 C52.98,23.82 53.24,24.46 53.24,25.34 C53.24,26.22 52.98,26.86 52.5,27.26 C52,27.66 51.22,27.86 50.14,27.86 Z" id="NLP" fill="#35FAA3" fill-rule="nonzero"></path>
                </g>
                <path d="M38.8402409,91.71 L38.8402409,84.4071008 L38.9077726,84.4071008 L45.1375788,91.71 L46.9271709,91.71 L46.9271709,82 L45.08693,82 L45.08693,89.2213025 L45.0193982,89.2213025 L38.8571238,82 L37,82 L37,91.71 L38.8402409,91.71 Z M59.9045269,91.71 L59.9045269,90.4452521 L53.26953,90.4452521 L53.26953,82 L51.4461721,82 L51.4461721,91.71 L59.9045269,91.71 Z M65.4027389,91.71 L65.4027389,87.9293557 L68.5260835,87.9293557 C71.4130668,87.9293557 72.865,86.9365966 72.865,84.9510784 C72.865,82.9791597 71.4299498,82 68.5598494,82 L63.562498,82 L63.562498,91.71 L65.4027389,91.71 Z M68.4079029,86.6646078 L65.4027389,86.6646078 L65.4027389,83.2647479 L68.4079029,83.2647479 C69.3026989,83.2647479 69.9611337,83.4007423 70.3832073,83.6727311 C70.8052809,83.917521 71.0247591,84.3527031 71.0247591,84.9510784 C71.0247591,85.5494538 70.8052809,85.9846359 70.4000902,86.2566246 C69.9780166,86.5286134 69.3195818,86.6646078 68.4079029,86.6646078 Z" id="NLP-文字" fill="#35FAA3" fill-rule="nonzero"></path>
            </g>
        </g>
    </g>
</svg>