<?xml version="1.0" encoding="UTF-8"?>
<svg width="110px" height="110px" viewBox="0 0 110 110" version="1.1" xmlns="http://www.w3.org/2000/svg" xmlns:xlink="http://www.w3.org/1999/xlink">
    <title>OCR</title>
    <g id="页面-1" stroke="none" stroke-width="1" fill="none" fill-rule="evenodd">
        <g id="资源服务市场备份-4" transform="translate(-1054.000000, -2104.000000)">
            <g id="OCR" transform="translate(1054.000000, 2104.000000)">
                <rect id="矩形备份-28" fill="#026DB8" x="0" y="0" width="110" height="110" rx="4"></rect>
                <path d="M41.5945061,91.44 C43.6529069,91.44 45.2920038,90.9475472 46.4927375,89.9626415 C47.6362935,89.005876 48.2080715,87.7677089 48.2080715,86.2340701 C48.2080715,84.6863612 47.6362935,83.434124 46.4927375,82.4914286 C45.2920038,81.4924528 43.6529069,81 41.5945061,81 C39.5170461,81 37.8779492,81.4924528 36.6962747,82.5054987 C35.5527187,83.4622642 35,84.7004313 35,86.2340701 C35,87.7536388 35.5527187,88.9918059 36.6962747,89.9485714 C37.8779492,90.9334771 39.5170461,91.44 41.5945061,91.44 Z M41.5945061,90.0892722 C40.1460019,90.0892722 39.0215052,89.7234501 38.221016,89.0199461 C37.4586453,88.3305121 37.07746,87.4018868 37.07746,86.2340701 C37.07746,85.0521833 37.4586453,84.123558 38.221016,83.434124 C39.0215052,82.7024798 40.1460019,82.3507278 41.5945061,82.3507278 C43.0430103,82.3507278 44.1675071,82.6884097 44.948937,83.3919137 C45.7113076,84.0813477 46.1115522,85.0240431 46.1115522,86.2340701 C46.1115522,87.430027 45.7113076,88.3727224 44.948937,89.0480863 C44.1675071,89.7375202 43.0430103,90.0892722 41.5945061,90.0892722 Z M56.2320226,91.44 C57.6995861,91.44 58.9574976,91.1304582 60.0057573,90.5113747 C61.130254,89.8500809 61.8354468,88.9355256 62.1403951,87.7677089 L60.1201129,87.7677089 C59.8532832,88.5556334 59.3768015,89.1465768 58.6906679,89.5405391 C58.0426529,89.9063612 57.2040452,90.0892722 56.2129633,90.0892722 C54.688222,90.0892722 53.5637253,89.7375202 52.8394732,89.0340162 C52.1533396,88.3727224 51.8102728,87.444097 51.8102728,86.2340701 C51.8102728,85.0662534 52.1533396,84.137628 52.8585325,83.4622642 C53.6018438,82.7165499 54.7072813,82.3507278 56.1748448,82.3507278 C57.1659266,82.3507278 57.9664158,82.5054987 58.6144309,82.8291105 C59.2624459,83.1527224 59.700809,83.6592453 59.9295202,84.3346092 L61.9498024,84.3346092 C61.7401505,83.3215633 61.130254,82.5054987 60.1391722,81.9145553 C59.1099718,81.2954717 57.7948824,81 56.2129633,81 C54.040207,81 52.4011101,81.520593 51.2575541,82.5899191 C50.2283537,83.5326146 49.7328128,84.7426415 49.7328128,86.2340701 C49.7328128,87.7536388 50.2092944,88.9636658 51.2003763,89.8641509 C52.324873,90.9053369 54.0020884,91.44 56.2320226,91.44 Z M66.3143744,91.2430189 L66.3143744,87.092345 L69.9928128,87.092345 C70.7742427,87.092345 71.36508,87.2049057 71.7843838,87.4581671 C72.1846284,87.7114286 72.4323989,88.1053908 72.5086359,88.6681941 L72.6801693,89.9204313 C72.7564064,90.4832345 72.9469991,90.9334771 73.2710066,91.2430189 L75.52,91.2430189 C75.0625776,90.8771968 74.7957479,90.3847439 74.7195108,89.7656604 L74.4907996,88.1616712 C74.3383255,87.1767655 73.6712512,86.5858221 72.4514581,86.388841 L72.4514581,86.3607008 C73.1947695,86.22 73.7856068,85.9245283 74.2239699,85.4742857 C74.6051552,85.0662534 74.7957479,84.6019407 74.7957479,84.0672776 C74.7957479,83.1105121 74.376444,82.392938 73.5378363,81.8864151 C72.7373471,81.4221024 71.6319097,81.1969811 70.2596425,81.1969811 L64.2369144,81.1969811 L64.2369144,91.2430189 L66.3143744,91.2430189 Z M69.9928128,85.7838275 L66.3143744,85.7838275 L66.3143744,82.5054987 L69.9737535,82.5054987 C70.9267168,82.5054987 71.6128504,82.6321294 72.0702728,82.8994609 C72.4895767,83.1527224 72.7182879,83.5607547 72.7182879,84.123558 C72.7182879,84.658221 72.4895767,85.0662534 72.0512135,85.347655 C71.5937912,85.6290566 70.9076576,85.7838275 69.9928128,85.7838275 Z" id="OCR备份" fill="#35FAA3" fill-rule="nonzero"></path>
                <g id="ocr" transform="translate(24.000000, 22.000000)">
                    <rect id="矩形" stroke-opacity="0.35" stroke="#8AFCA1" stroke-width="3" x="2.5" y="3.5" width="56" height="37"></rect>
                    <g id="编组" transform="translate(1.000000, 3.470947)" opacity="0.402775254" stroke="#35FAA3" stroke-width="3">
                        <g id="形状">
                            <path d="M1.0658141e-14,0 L57.4672852,0 L57.4672852,12.0201416 M59,37.0549316 L1.52124023,37.0549316 L1.52124023,26.1911621"></path>
                        </g>
                    </g>
                    <circle id="椭圆形" fill="#35FAA3" cx="3" cy="3" r="3"></circle>
                    <circle id="椭圆形备份-17" fill="#35FAA3" cx="58" cy="41" r="3"></circle>
                    <path d="M14.5709878,28.84 C16.9341863,28.84 18.8159925,28.1871698 20.1945249,26.8815094 C21.507413,25.6131536 22.163857,23.971752 22.163857,21.9386523 C22.163857,19.8869003 21.507413,18.2268464 20.1945249,16.9771429 C18.8159925,15.6528302 16.9341863,15 14.5709878,15 C12.1859078,15 10.3041016,15.6528302 8.94745061,16.9957951 C7.63456256,18.2641509 7,19.9055526 7,21.9386523 C7,23.9530997 7.63456256,25.5945013 8.94745061,26.8628571 C10.3041016,28.1685175 12.1859078,28.84 14.5709878,28.84 Z M14.5709878,27.0493801 C12.9079962,27.0493801 11.6169897,26.5644205 10.697968,25.6318059 C9.82270931,24.7178437 9.38507996,23.4867925 9.38507996,21.9386523 C9.38507996,20.3718598 9.82270931,19.1408086 10.697968,18.2268464 C11.6169897,17.2569272 12.9079962,16.7906199 14.5709878,16.7906199 C16.2339793,16.7906199 17.5249859,17.2382749 18.4221261,18.1708895 C19.2973848,19.0848518 19.7568956,20.3345553 19.7568956,21.9386523 C19.7568956,23.524097 19.2973848,24.7738005 18.4221261,25.6691105 C17.5249859,26.5830728 16.2339793,27.0493801 14.5709878,27.0493801 Z M31.3759548,28.84 C33.0608278,28.84 34.5050047,28.4296496 35.7084854,27.6089488 C36.999492,26.7322911 37.8091063,25.5198922 38.1592098,23.971752 L35.8397742,23.971752 C35.5334337,25.0162803 34.986397,25.7996765 34.1986642,26.3219407 C33.4546943,26.8069003 32.4919097,27.0493801 31.3540734,27.0493801 C29.603556,27.0493801 28.3125494,26.5830728 27.4810536,25.6504582 C26.6933208,24.7738005 26.2994544,23.5427493 26.2994544,21.9386523 C26.2994544,20.3905121 26.6933208,19.1594609 27.5029351,18.2641509 C28.3563123,17.2755795 29.6254374,16.7906199 31.3103104,16.7906199 C32.4481468,16.7906199 33.3671684,16.9957951 34.1111383,17.4247978 C34.8551082,17.8538005 35.3583819,18.525283 35.6209595,19.420593 L37.9403951,19.420593 C37.699699,18.077628 36.999492,16.9957951 35.8616557,16.2123989 C34.6800564,15.3916981 33.1702352,15 31.3540734,15 C28.8595861,15 26.9777799,15.6901348 25.6648918,17.1077089 C24.4832926,18.3574124 23.9143744,19.9615094 23.9143744,21.9386523 C23.9143744,23.9530997 24.4614111,25.5571968 25.5992474,26.7509434 C26.890254,28.1312129 28.8158231,28.84 31.3759548,28.84 Z M42.9512512,28.5788679 L42.9512512,23.076442 L47.1743744,23.076442 C48.0715146,23.076442 48.7498401,23.2256604 49.2312324,23.5614016 C49.6907432,23.8971429 49.9752023,24.419407 50.0627281,25.1654987 L50.2596613,26.8255526 C50.3471872,27.5716442 50.5660019,28.1685175 50.9379868,28.5788679 L53.52,28.5788679 C52.9948448,28.0939084 52.6885042,27.4410782 52.6009784,26.6203774 L52.3384008,24.4940162 C52.163349,23.1883558 51.3974976,22.4049596 49.9970837,22.1438275 L49.9970837,22.1065229 C50.850461,21.92 51.5287865,21.5283019 52.0320602,20.9314286 C52.4696896,20.3905121 52.6885042,19.7749865 52.6885042,19.0661995 C52.6885042,17.7978437 52.2071119,16.8465768 51.2443274,16.1750943 C50.3253057,15.5595687 49.0561806,15.2611321 47.480715,15.2611321 L40.5661712,15.2611321 L40.5661712,28.5788679 L42.9512512,28.5788679 Z M47.1743744,21.341779 L42.9512512,21.341779 L42.9512512,16.9957951 L47.1524929,16.9957951 C48.2465663,16.9957951 49.0342992,17.1636658 49.5594544,17.5180593 C50.0408467,17.8538005 50.3034243,18.394717 50.3034243,19.1408086 C50.3034243,19.8495957 50.0408467,20.3905121 49.5375729,20.763558 C49.0124177,21.1366038 48.2246849,21.341779 47.1743744,21.341779 Z" id="OCR" fill="#35FAA3" fill-rule="nonzero"></path>
                </g>
            </g>
        </g>
    </g>
</svg>