<?xml version="1.0" encoding="utf-8"?>
<!-- Generator: Adobe Illustrator 21.0.0, SVG Export Plug-In . SVG Version: 6.00 Build 0)  -->
<svg version="1.1" id="图层_1" xmlns="http://www.w3.org/2000/svg" xmlns:xlink="http://www.w3.org/1999/xlink" x="0px" y="0px"
	 viewBox="0 0 200 200" style="enable-background:new 0 0 200 200;" xml:space="preserve">
<style type="text/css">
	.st0{fill:#FFFFFF;}
</style>
<path class="st0" d="M181.2,18.8v53.1h-18.1l0-35.6H36.9v89.7h79.2v17.6h-7.3v20.1l35,0v17.6H56.2v-17.6h35.1v-20.1H18.8V18.8H181.2
	z M168.2,84.4l1.6,7.5c3.6,1.1,6.8,2.9,9.6,5.2l7.7-2.5l6.8,11l-6.1,5c0.8,3.4,0.8,7,0,10.4l6.1,5l-6.8,11l-7.7-2.5
	c-2.8,2.3-6.1,4.1-9.6,5.2l-1.6,7.5h-13.6l-1.6-7.6c-3.5-1.1-6.7-2.8-9.4-5.1l-7.8,2.5l-6.8-11l6.2-5.1c-0.7-3.4-0.7-6.8,0-10.2
	l-6.2-5.1l6.8-11l7.8,2.5c2.7-2.3,5.9-4.1,9.4-5.2l1.6-7.6H168.2L168.2,84.4z M161.5,103.3c-7.4,0-13.4,5.6-13.4,12.6
	c0,6.9,6,12.6,13.4,12.6c7.4,0,13.4-5.6,13.4-12.6C174.9,108.9,168.9,103.3,161.5,103.3L161.5,103.3z"/>
</svg>
