<?xml version="1.0" encoding="UTF-8"?>
<svg width="50px" height="50px" viewBox="0 0 50 50" version="1.1" xmlns="http://www.w3.org/2000/svg" xmlns:xlink="http://www.w3.org/1999/xlink">
    <title>icon/共享</title>
    <defs>
        <linearGradient x1="0%" y1="3.11323713%" x2="100%" y2="89.2901942%" id="linearGradient-1">
            <stop stop-color="#75ADFF" stop-opacity="0.696624" offset="0%"></stop>
            <stop stop-color="#94B5FC" stop-opacity="0.696624" offset="100%"></stop>
        </linearGradient>
    </defs>
    <g id="页面-1" stroke="none" stroke-width="1" fill="none" fill-rule="evenodd">
        <g id="资源服务市场备份-4" transform="translate(-380.000000, -398.000000)" fill-rule="nonzero">
            <g id="编组-6" transform="translate(360.000000, 381.000000)">
                <g id="icon/共享" transform="translate(20.000000, 17.000000)">
                    <g id="编组" transform="translate(0.939521, 4.000000)">
                        <path d="M0,25.6669232 C0,25.6669232 2.28393756,25.928206 3.79937768,25.5101535 C5.31481779,25.0921011 8.99890498,23.0540954 12.6307356,23.4198913 C16.2625662,23.7856872 23.3172013,25.6146666 25.7210028,25.745308 C28.1248044,25.8759494 29.7970142,26.8426957 29.5096031,29.220369 C29.2221921,31.5980423 25.8516442,31.3628878 24.7281283,31.389016 C23.6046123,31.4151443 18.3005719,31.3367595 16.9157732,31.571914 C15.5309745,31.8070685 14.2768171,32.1989926 14.2768171,32.1989926 C14.2768171,32.1989926 18.1699305,32.7476865 20.5737321,32.799943 C22.9775337,32.8521996 28.0202913,32.9044561 28.64737,32.5386603 C29.2744486,32.1728644 45.2649547,22.3747602 45.2649547,22.3747602 C45.2649547,22.3747602 47.1200624,22.0089643 47.7732694,23.1847368 C48.4264763,24.3605093 48.0606804,25.4317687 47.4858583,26.0327191 C46.9110362,26.6336695 36.3029554,35.4127708 35.9110312,35.5695405 C35.519107,35.7263102 28.2554458,40.037476 22.9514054,41.8141989 C22.9514054,41.8141989 19.6592424,42.2322514 15.9490269,41.8141989 C15.9490269,41.8141989 7.37895175,38.2868814 6.7257448,38.2868814 L1.17577251,38.2868814 C1.17577251,38.2868814 0,38.1039835 0,37.0588523 L0,25.6669232 Z" id="路径" fill="#4C7EE9"></path>
                        <path d="M35.0718112,-0.25 C35.742001,-0.25 36.361484,0.0268894442 36.8122939,0.472395723 C37.2615816,0.916397648 37.5427148,1.5269703 37.5427148,2.19477534 L37.5427148,2.19477534 L37.5427148,22.91354 L31.648047,28.8082077 L7.29745175,28.8082077 C6.61431958,28.8082077 5.99663948,28.5319706 5.54971235,28.0850435 C5.10278523,27.6381164 4.82654813,27.0204363 4.82654813,26.3373041 L4.82654813,26.3373041 L4.82654813,2.22090362 C4.82654813,1.53777144 5.10278523,0.920091341 5.54971235,0.473164217 C5.99663948,0.0262370933 6.61431958,-0.25 7.29745175,-0.25 L7.29745175,-0.25 Z" id="路径" stroke-opacity="0.797264259" stroke="#7BA3F8" stroke-width="0.5" fill="url(#linearGradient-1)" transform="translate(21.184631, 14.279104) scale(1, -1) translate(-21.184631, -14.279104) "></path>
                        <path d="M24.0408084,22.8339659 L12.6161007,22.8339659 C11.812801,22.8339659 11.1656984,22.270533 11.1656984,21.5710991 C11.1656984,20.8716652 11.812801,20.3082324 12.6161007,20.3082324 L24.0408084,20.3082324 C24.8441081,20.3082324 25.4912107,20.8716652 25.4912107,21.5710991 C25.4912107,22.270533 24.8441081,22.8339659 24.0408084,22.8339659 Z" id="路径" fill="#FFFFFF"></path>
                        <path d="M29.7308483,16.171255 L12.6161007,16.171255 C11.812801,16.171255 11.1656984,15.6078222 11.1656984,14.9083883 C11.1656984,14.2089544 11.812801,13.6455215 12.6161007,13.6455215 L29.7531622,13.6455215 C30.5564619,13.6455215 31.2035645,14.2089544 31.2035645,14.9083883 C31.2035645,15.6078222 30.5341481,16.171255 29.7308483,16.171255 L29.7308483,16.171255 Z" id="路径" fill="#FFFFFF"></path>
                        <path d="M29.7308483,9.50854416 L12.6161007,9.50854416 C11.812801,9.50854416 11.1656984,8.9451113 11.1656984,8.2456774 C11.1656984,7.5462435 11.812801,6.98281063 12.6161007,6.98281063 L29.7531622,6.98281063 C30.5564619,6.98281063 31.2035645,7.5462435 31.2035645,8.2456774 C31.2035645,8.9451113 30.5341481,9.50854416 29.7308483,9.50854416 L29.7308483,9.50854416 Z" id="路径" fill="#FFFFFF"></path>
                    </g>
                </g>
            </g>
        </g>
    </g>
</svg>